<svg xmlns="http://www.w3.org/2000/svg" width="512" height="512" viewBox="0 0 512 512"><rect width="512" height="512" fill="#0B0B0B" rx="90"/><rect width="352" height="352" x="80" y="80" fill="none" stroke="#e1ff00" stroke-opacity=".15" stroke-width="3" rx="50"/><rect width="232" height="232" x="140" y="140" fill="none" stroke="#e1ff00" stroke-opacity=".35" stroke-width="4" rx="35"/><rect width="132" height="132" x="190" y="190" fill="none" stroke="#e1ff00" stroke-opacity=".6" stroke-width="5" rx="20"/><g fill="#e1ff00"><rect width="20" height="20" x="200" y="180"/><rect width="20" height="20" x="225" y="180"/><rect width="20" height="20" x="250" y="180"/><rect width="20" height="20" x="275" y="180"/><rect width="20" height="20" x="200" y="205"/><rect width="20" height="20" x="300" y="205"/><rect width="20" height="20" x="200" y="230"/><rect width="20" height="20" x="300" y="230"/><rect width="20" height="20" x="200" y="255"/><rect width="20" height="20" x="225" y="255"/><rect width="20" height="20" x="250" y="255"/><rect width="20" height="20" x="275" y="255"/><rect width="20" height="20" x="200" y="280"/><rect width="20" height="20" x="300" y="280"/><rect width="20" height="20" x="200" y="305"/><rect width="20" height="20" x="300" y="305"/><rect width="20" height="20" x="200" y="330"/><rect width="20" height="20" x="225" y="330"/><rect width="20" height="20" x="250" y="330"/><rect width="20" height="20" x="275" y="330"/></g></svg>