<svg width="512" height="512" viewBox="0 0 512 512" xmlns="http://www.w3.org/2000/svg">

<rect width="512" height="512" rx="90" fill="#0B0B0B"/>

<rect x="80" y="80" width="352" height="352" rx="50"
stroke="#e1ff00" stroke-opacity="0.15" stroke-width="3" fill="none"/>

<rect x="140" y="140" width="232" height="232" rx="35"
stroke="#e1ff00" stroke-opacity="0.35" stroke-width="4" fill="none"/>

<rect x="190" y="190" width="132" height="132" rx="20"
stroke="#e1ff00" stroke-opacity="0.6" stroke-width="5" fill="none"/>

<!-- Pixel B -->
<g fill="#e1ff00">

<rect x="200" y="180" width="20" height="20"/>
<rect x="225" y="180" width="20" height="20"/>
<rect x="250" y="180" width="20" height="20"/>
<rect x="275" y="180" width="20" height="20"/>

<rect x="200" y="205" width="20" height="20"/>
<rect x="300" y="205" width="20" height="20"/>

<rect x="200" y="230" width="20" height="20"/>
<rect x="300" y="230" width="20" height="20"/>

<rect x="200" y="255" width="20" height="20"/>
<rect x="225" y="255" width="20" height="20"/>
<rect x="250" y="255" width="20" height="20"/>
<rect x="275" y="255" width="20" height="20"/>

<rect x="200" y="280" width="20" height="20"/>
<rect x="300" y="280" width="20" height="20"/>

<rect x="200" y="305" width="20" height="20"/>
<rect x="300" y="305" width="20" height="20"/>

<rect x="200" y="330" width="20" height="20"/>
<rect x="225" y="330" width="20" height="20"/>
<rect x="250" y="330" width="20" height="20"/>
<rect x="275" y="330" width="20" height="20"/>

</g>

</svg>